<?xml version="1.0" encoding="UTF-8" standalone="no"?>
<!-- Created with Inkscape (http://www.inkscape.org/) -->

<svg
   xmlns:dc="http://purl.org/dc/elements/1.1/"
   xmlns:cc="http://creativecommons.org/ns#"
   xmlns:rdf="http://www.w3.org/1999/02/22-rdf-syntax-ns#"
   xmlns:svg="http://www.w3.org/2000/svg"
   xmlns="http://www.w3.org/2000/svg"
   xmlns:xlink="http://www.w3.org/1999/xlink"
   xmlns:sodipodi="http://sodipodi.sourceforge.net/DTD/sodipodi-0.dtd"
   xmlns:inkscape="http://www.inkscape.org/namespaces/inkscape"
   width="106.29921"
   height="85.039368"
   id="svg2"
   version="1.1"
   inkscape:version="0.48.3.1 r9886"
   sodipodi:docname="new_stack_abstract.pdf">
  <defs
     id="defs4" />
  <sodipodi:namedview
     id="base"
     pagecolor="#ffffff"
     bordercolor="#666666"
     borderopacity="1.0"
     inkscape:pageopacity="0.0"
     inkscape:pageshadow="2"
     inkscape:zoom="6.03"
     inkscape:cx="62.097166"
     inkscape:cy="52.600096"
     inkscape:document-units="px"
     inkscape:current-layer="layer1"
     showgrid="true"
     units="cm"
     inkscape:window-width="1280"
     inkscape:window-height="967"
     inkscape:window-x="0"
     inkscape:window-y="27"
     inkscape:window-maximized="1">
    <inkscape:grid
       type="axonomgrid"
       id="grid2985"
       units="mm"
       empspacing="5"
       visible="true"
       enabled="false"
       snapvisiblegridlinesonly="true"
       gridanglez="10" />
  </sodipodi:namedview>
  <metadata
     id="metadata7">
    <rdf:RDF>
      <cc:Work
         rdf:about="">
        <dc:format>image/svg+xml</dc:format>
        <dc:type
           rdf:resource="http://purl.org/dc/dcmitype/StillImage" />
        <dc:title></dc:title>
      </cc:Work>
    </rdf:RDF>
  </metadata>
  <g
     inkscape:label="Layer 1"
     inkscape:groupmode="layer"
     id="layer1"
     transform="translate(0,-967.32151)">
    <path
       transform="matrix(1.7367888,0,0,1.6132885,-52.703126,978.79623)"
       d="m 86.733001,14.558439 -4.257848,-0.794186 1.647934,4.005535 -3.804037,-2.071064 0.3295,4.31873 -2.97786,-3.14521 -1.021188,4.209177 -1.86019,-3.911482 -2.271915,3.687601 -0.560431,-4.294871 -3.300251,2.805057 0.794187,-4.257848 -4.005536,1.647934 2.071064,-3.804037 -4.31873,0.3295 3.14521,-2.97786 -4.209177,-1.021188 3.911482,-1.8601898 -3.687601,-2.2719148 4.294871,-0.5604312 -2.805057,-3.3002508 4.257848,0.7941863 -1.647934,-4.0055351 3.804037,2.07106327 -0.3295,-4.31872987 2.97786,3.1452103 1.021188,-4.2091772 1.86019,3.911482 2.271915,-3.6876009 0.560431,4.29487078 3.300251,-2.80505658 -0.794187,4.25784758 4.005536,-1.64793378 -2.071064,3.8040366 4.31873,-0.3294997 -3.14521,2.9778601 4.209177,1.021188 -3.911482,1.8601899 3.687601,2.2719149 -4.294871,0.560431 z"
       inkscape:randomized="0"
       inkscape:rounded="0"
       inkscape:flatsided="false"
       sodipodi:arg2="0.68244651"
       sodipodi:arg1="0.52536687"
       sodipodi:r2="9.2585592"
       sodipodi:r1="13.226514"
       sodipodi:cy="7.9249396"
       sodipodi:cx="75.290215"
       sodipodi:sides="20"
       id="path3935"
       style="color:#000000;fill:#ffffff;fill-opacity:1;fill-rule:nonzero;stroke:#000000;stroke-width:1.09748089;stroke-linecap:butt;stroke-linejoin:miter;stroke-miterlimit:7;stroke-opacity:1;stroke-dasharray:none;stroke-dashoffset:0;marker:none;visibility:visible;display:inline;overflow:visible;enable-background:accumulate"
       sodipodi:type="star" />
    <path
       style="color:#000000;fill:none;stroke:#000000;stroke-width:2;stroke-linecap:butt;stroke-linejoin:miter;stroke-miterlimit:3.5999999;stroke-opacity:1;stroke-dasharray:none;stroke-dashoffset:0;marker:none;visibility:visible;display:inline;overflow:visible;enable-background:accumulate"
       d="m 51.714946,972.376 -47.0135874,8.28976 9.4027174,5.42866 -9.4027174,1.65796 9.4027174,5.42866 -9.4027174,1.65795 9.4027174,5.42871 -9.4027174,1.6579 9.4027174,5.4287 -9.4027174,1.6579 9.4027174,5.4287 -9.4027174,1.6579 9.4027174,5.4287 -9.4027174,1.6579 47.0135874,27.1434 47.013586,-8.2898 -9.402717,-5.4287 9.402717,-1.6579 -9.402717,-5.4287 9.402717,-1.6579 -9.402717,-5.4287 9.402717,-1.658 -9.402717,-5.4286 9.402717,-1.658 -9.402717,-5.4286 9.402717,-1.658 -9.402717,-5.4286 9.402717,-1.65799 z"
       id="path3802"
       inkscape:connector-curvature="0" />
    <g
       id="g3870"
       transform="translate(-5.8452052e-8,17.716537)">
      <use
         height="106.29921"
         width="106.29921"
         transform="translate(1.9030238e-7,42.519685)"
         id="use3868"
         xlink:href="#g3835"
         y="0"
         x="0" />
      <use
         height="106.29921"
         width="106.29921"
         transform="translate(-1.2188625e-7,35.43307)"
         id="use3866"
         xlink:href="#g3835"
         y="0"
         x="0" />
      <use
         height="106.29921"
         width="106.29921"
         transform="translate(-1.2188618e-7,28.346456)"
         id="use3864"
         xlink:href="#g3835"
         y="0"
         x="0" />
      <use
         height="106.29921"
         width="106.29921"
         transform="translate(1.9030238e-7,21.259842)"
         id="use3862"
         xlink:href="#g3835"
         y="0"
         x="0" />
      <use
         height="106.29921"
         width="106.29921"
         transform="translate(1.2686825e-7,14.173228)"
         id="use3860"
         xlink:href="#g3835"
         y="0"
         x="0" />
      <use
         height="106.29921"
         width="106.29921"
         transform="translate(1.9030238e-7,7.0866141)"
         id="use3858"
         xlink:href="#g3835"
         y="0"
         x="0" />
      <g
         id="g3835">
        <path
           style="color:#000000;fill:#ffffff;fill-opacity:1;stroke:#000000;stroke-width:0.75;stroke-linecap:butt;stroke-linejoin:miter;stroke-miterlimit:3.5999999;stroke-opacity:1;stroke-dasharray:none;stroke-dashoffset:0;marker:none;visibility:visible;display:inline;overflow:visible;enable-background:accumulate"
           d="m 4.7013586,962.94923 47.0135874,-8.28977 47.013587,27.14331 -47.013587,8.28976 z"
           id="path3788"
           inkscape:connector-curvature="0" />
        <path
           transform="translate(0,946.06167)"
           inkscape:connector-curvature="0"
           id="path3817"
           d="m 14.104076,18.77291 37.61087,-6.631811"
           style="color:#000000;fill:none;stroke:#000000;stroke-width:0.25;stroke-linecap:butt;stroke-linejoin:miter;stroke-miterlimit:3.5999999;stroke-opacity:1;stroke-dasharray:none;stroke-dashoffset:0;marker:none;visibility:visible;display:inline;overflow:visible;enable-background:accumulate" />
        <path
           transform="translate(0,946.06167)"
           inkscape:connector-curvature="0"
           id="path3819"
           d="M 18.805435,21.487241 47.013587,16.513383"
           style="color:#000000;fill:none;stroke:#000000;stroke-width:0.25;stroke-linecap:butt;stroke-linejoin:miter;stroke-miterlimit:3.5999999;stroke-opacity:1;stroke-dasharray:none;stroke-dashoffset:0;marker:none;visibility:visible;display:inline;overflow:visible;enable-background:accumulate" />
        <path
           transform="translate(0,946.06167)"
           inkscape:connector-curvature="0"
           id="path3821"
           d="M 23.506793,24.201572 56.416304,18.398737"
           style="color:#000000;fill:none;stroke:#000000;stroke-width:0.25;stroke-linecap:butt;stroke-linejoin:miter;stroke-miterlimit:3.5999999;stroke-opacity:1;stroke-dasharray:none;stroke-dashoffset:0;marker:none;visibility:visible;display:inline;overflow:visible;enable-background:accumulate" />
        <path
           transform="translate(0,946.06167)"
           inkscape:connector-curvature="0"
           id="path3823"
           d="M 28.208152,26.915902 42.312228,24.428973"
           style="color:#000000;fill:none;stroke:#000000;stroke-width:0.25;stroke-linecap:butt;stroke-linejoin:miter;stroke-miterlimit:3.5999999;stroke-opacity:1;stroke-dasharray:none;stroke-dashoffset:0;marker:none;visibility:visible;display:inline;overflow:visible;enable-background:accumulate" />
        <path
           transform="translate(0,946.06167)"
           inkscape:connector-curvature="0"
           id="path3825"
           d="M 32.909511,29.630233 61.117663,24.656375"
           style="color:#000000;fill:none;stroke:#000000;stroke-width:0.25;stroke-linecap:butt;stroke-linejoin:miter;stroke-miterlimit:3.5999999;stroke-opacity:1;stroke-dasharray:none;stroke-dashoffset:0;marker:none;visibility:visible;display:inline;overflow:visible;enable-background:accumulate" />
        <path
           transform="translate(0,946.06167)"
           inkscape:connector-curvature="0"
           id="path3827"
           d="M 37.61087,32.344564 56.416304,29.028658"
           style="color:#000000;fill:none;stroke:#000000;stroke-width:0.25;stroke-linecap:butt;stroke-linejoin:miter;stroke-miterlimit:3.5999999;stroke-opacity:1;stroke-dasharray:none;stroke-dashoffset:0;marker:none;visibility:visible;display:inline;overflow:visible;enable-background:accumulate" />
        <path
           transform="translate(0,946.06167)"
           inkscape:connector-curvature="0"
           id="path3829"
           d="M 42.312228,35.058895 65.819022,30.914013"
           style="color:#000000;fill:none;stroke:#000000;stroke-width:0.25;stroke-linecap:butt;stroke-linejoin:miter;stroke-miterlimit:3.5999999;stroke-opacity:1;stroke-dasharray:none;stroke-dashoffset:0;marker:none;visibility:visible;display:inline;overflow:visible;enable-background:accumulate" />
        <path
           transform="translate(0,946.06167)"
           inkscape:connector-curvature="0"
           id="path3831"
           d="M 47.013587,37.773225 75.221739,32.799367"
           style="color:#000000;fill:none;stroke:#000000;stroke-width:0.25;stroke-linecap:butt;stroke-linejoin:miter;stroke-miterlimit:3.5999999;stroke-opacity:1;stroke-dasharray:none;stroke-dashoffset:0;marker:none;visibility:visible;display:inline;overflow:visible;enable-background:accumulate" />
        <path
           transform="translate(0,946.06167)"
           inkscape:connector-curvature="0"
           id="path3833"
           d="m 51.714946,40.487556 32.90951,-5.802835"
           style="color:#000000;fill:none;stroke:#000000;stroke-width:0.25;stroke-linecap:butt;stroke-linejoin:miter;stroke-miterlimit:3.5999999;stroke-opacity:1;stroke-dasharray:none;stroke-dashoffset:0;marker:none;visibility:visible;display:inline;overflow:visible;enable-background:accumulate" />
      </g>
    </g>
    <path
       sodipodi:type="star"
       style="color:#000000;fill:#ffffff;fill-opacity:1;fill-rule:nonzero;stroke:#000000;stroke-width:0.54874045;stroke-linecap:butt;stroke-linejoin:miter;stroke-miterlimit:7;stroke-opacity:1;stroke-dasharray:none;stroke-dashoffset:0;marker:none;visibility:visible;display:inline;overflow:visible;enable-background:accumulate"
       id="path3933"
       sodipodi:sides="20"
       sodipodi:cx="75.290215"
       sodipodi:cy="7.9249396"
       sodipodi:r1="13.226514"
       sodipodi:r2="9.2585592"
       sodipodi:arg1="0.52536687"
       sodipodi:arg2="0.68244651"
       inkscape:flatsided="false"
       inkscape:rounded="0"
       inkscape:randomized="0"
       d="m 86.733001,14.558439 -4.257848,-0.794186 1.647934,4.005535 -3.804037,-2.071064 0.3295,4.31873 -2.97786,-3.14521 -1.021188,4.209177 -1.86019,-3.911482 -2.271915,3.687601 -0.560431,-4.294871 -3.300251,2.805057 0.794187,-4.257848 -4.005536,1.647934 2.071064,-3.804037 -4.31873,0.3295 3.14521,-2.97786 -4.209177,-1.021188 3.911482,-1.8601898 -3.687601,-2.2719148 4.294871,-0.5604312 -2.805057,-3.3002508 4.257848,0.7941863 -1.647934,-4.0055351 3.804037,2.07106327 -0.3295,-4.31872987 2.97786,3.1452103 1.021188,-4.2091772 1.86019,3.911482 2.271915,-3.6876009 0.560431,4.29487078 3.300251,-2.80505658 -0.794187,4.25784758 4.005536,-1.64793378 -2.071064,3.8040366 4.31873,-0.3294997 -3.14521,2.9778601 4.209177,1.021188 -3.911482,1.8601899 3.687601,2.2719149 -4.294871,0.560431 z"
       transform="matrix(1.7367888,0,0,1.6132885,-52.703126,978.79623)" />
    <text
       xml:space="preserve"
       style="font-size:11.36386871px;font-style:normal;font-variant:normal;font-weight:normal;font-stretch:normal;line-height:125%;letter-spacing:0px;word-spacing:0px;fill:#000000;fill-opacity:1;stroke:none;font-family:Myriad Pro;-inkscape-font-specification:Myriad Pro"
       x="65.878075"
       y="994.94287"
       id="text3960"
       sodipodi:linespacing="125%"><tspan
         sodipodi:role="line"
         id="tspan3962"
         x="65.878075"
         y="994.94287"
         style="font-size:11px;font-style:italic;font-weight:bold;font-family:Source Sans Pro;-inkscape-font-specification:Source Sans Pro Bold Italic">NEW!</tspan></text>
  </g>
</svg>
